<svg width="1920" height="900" viewBox="0 0 1920 900" fill="none" xmlns="http://www.w3.org/2000/svg">
<g clip-path="url(#clip0_1410_140)">
<rect width="1920" height="900" fill="white"/>
<g opacity="0.3">
<path d="M177.844 824.909C177.844 824.909 218.223 411.196 713.56 369.381" stroke="#E1E1E6" stroke-width="5.18915"/>
<path d="M321.381 615.304C321.381 615.304 568.189 282.179 991.617 487.376" stroke="#E1E1E6" stroke-width="5.18915"/>
<path d="M1102.05 577.988C1102.05 577.988 1405.02 882.882 1094.21 1223.06" stroke="#E1E1E6" stroke-width="5.18915"/>
<path d="M259.265 1065.72C259.265 1065.72 192.226 930.347 244.138 765.907" stroke="#E1E1E6" stroke-width="5.18915"/>
<path d="M281.384 893.724C281.384 893.724 270.716 639.881 539.901 510.678" stroke="#E1E1E6" stroke-width="5.18915"/>
<path d="M744.219 469.242C744.219 469.242 1083.6 463.292 1178.6 804.273" stroke="#E1E1E6" stroke-width="5.18915"/>
<path d="M438.648 643.3C438.648 643.3 209.545 873.934 432.479 1140.43" stroke="#E1E1E6" stroke-width="5.18915"/>
<path d="M630.342 529.296C630.342 529.296 803.694 477.84 964.334 582.545" stroke="#E1E1E6" stroke-width="5.18915"/>
<path d="M417.761 767.476C417.761 767.476 288.291 1011.91 566.072 1181.05" stroke="#E1E1E6" stroke-width="5.18915"/>
<path d="M452.175 974.719C452.175 974.719 391.672 821.299 537.921 684.93" stroke="#E1E1E6" stroke-width="5.18915"/>
<path d="M533.953 626.424C533.953 626.424 638.756 550.429 781.375 569.746" stroke="#E1E1E6" stroke-width="5.18915"/>
<path d="M999.879 680.155C999.879 680.155 1148.79 824.775 1052.01 1032.54" stroke="#E1E1E6" stroke-width="5.18915"/>
<path d="M1008.39 503.93C1003.57 508.338 995.869 508.224 991.198 503.695C986.527 499.167 986.633 491.921 991.457 487.513C996.281 483.104 1003.98 483.218 1008.65 487.747C1013.32 492.276 1013.21 499.522 1008.39 503.93Z" fill="#E1E1E6" stroke="#E1E1E6" stroke-width="7.80322"/>
<path d="M548.865 690.72C544.041 695.129 536.344 695.015 531.673 690.486C527.002 685.957 527.109 678.712 531.933 674.303C536.756 669.895 544.453 670.009 549.124 674.538C553.795 679.067 553.689 686.312 548.865 690.72Z" fill="#E1E1E6" stroke="#E1E1E6" stroke-width="7.80322"/>
<path d="M801.376 579.909C796.552 584.317 788.855 584.203 784.184 579.674C779.513 575.145 779.62 567.9 784.443 563.491C789.267 559.083 796.964 559.197 801.635 563.726C806.306 568.255 806.199 575.5 801.376 579.909Z" fill="#E1E1E6" stroke="#E1E1E6" stroke-width="7.80322"/>
<path d="M973.012 594.29C968.188 598.698 960.492 598.584 955.821 594.055C951.15 589.526 951.256 582.281 956.08 577.872C960.903 573.464 968.6 573.578 973.271 578.107C977.942 582.636 977.836 589.881 973.012 594.29Z" fill="#E1E1E6" stroke="#E1E1E6" stroke-width="7.80322"/>
<path d="M1188.25 823.504C1183.42 827.912 1175.72 827.798 1171.05 823.269C1166.38 818.741 1166.49 811.495 1171.31 807.087C1176.14 802.678 1183.83 802.792 1188.5 807.321C1193.18 811.85 1193.07 819.096 1188.25 823.504Z" fill="#E1E1E6" stroke="#E1E1E6" stroke-width="7.80322"/>
<path d="M432.045 765.449C427.221 769.857 419.524 769.743 414.853 765.214C410.182 760.685 410.289 753.44 415.113 749.032C419.936 744.623 427.633 744.737 432.304 749.266C436.975 753.795 436.868 761.041 432.045 765.449Z" fill="#E1E1E6" stroke="#E1E1E6" stroke-width="7.80322"/>
<path d="M453.611 645.042C448.787 649.45 441.09 649.336 436.419 644.807C431.748 640.278 431.855 633.033 436.679 628.624C441.502 624.216 449.199 624.33 453.87 628.859C458.541 633.388 458.435 640.633 453.611 645.042Z" fill="#E1E1E6" stroke="#E1E1E6" stroke-width="7.80322"/>
<path d="M560.301 512.877C555.478 517.285 547.781 517.171 543.11 512.642C538.439 508.113 538.545 500.868 543.369 496.459C548.193 492.051 555.89 492.165 560.561 496.694C565.232 501.223 565.125 508.468 560.301 512.877Z" fill="#E1E1E6" stroke="#E1E1E6" stroke-width="7.80322"/>
<path d="M256.751 766.559C251.927 770.968 244.23 770.854 239.559 766.325C234.888 761.796 234.995 754.55 239.818 750.142C244.642 745.734 252.339 745.848 257.01 750.376C261.681 754.905 261.574 762.151 256.751 766.559Z" fill="#E1E1E6" stroke="#E1E1E6" stroke-width="7.80322"/>
<path d="M735.776 377.739C730.952 382.148 723.255 382.034 718.584 377.505C713.913 372.976 714.02 365.731 718.844 361.322C723.667 356.914 731.364 357.028 736.035 361.557C740.706 366.086 740.6 373.331 735.776 377.739Z" fill="#E1E1E6" stroke="#E1E1E6" stroke-width="7.80322"/>
</g>
<g opacity="0.3">
<path d="M1274.67 -4.20642C1274.67 -4.20642 1302.98 243.647 1556.35 370.756" stroke="#E1E1E6" stroke-width="5.18915"/>
<path d="M2051.92 329.871C2051.92 329.871 1749.74 485.936 1469.64 245.301" stroke="#E1E1E6" stroke-width="5.18915"/>
<path d="M1354.27 76.7208C1354.27 76.7208 1287.23 -58.6534 1339.14 -223.093" stroke="#E1E1E6" stroke-width="5.18915"/>
<path d="M1870.73 332.573C1870.73 332.573 2152.81 324.728 2260.76 43.6775" stroke="#E1E1E6" stroke-width="5.18915"/>
<path d="M1428.08 107.966C1428.08 107.966 1486.47 209.335 1590.16 269.375" stroke="#E1E1E6" stroke-width="5.18915"/>
<path d="M1533.65 -345.7C1533.65 -345.7 1304.55 -115.066 1527.48 151.432" stroke="#E1E1E6" stroke-width="5.18915"/>
<path d="M1812.86 282.706C1812.86 282.706 2170.03 300.282 2228.8 -50.4468" stroke="#E1E1E6" stroke-width="5.18915"/>
<path d="M1512.76 -221.524C1512.76 -221.524 1383.29 22.9146 1661.07 192.053" stroke="#E1E1E6" stroke-width="5.18915"/>
<path d="M1615.55 93.9989C1615.55 93.9989 1692.06 194.53 1866.68 181.933" stroke="#E1E1E6" stroke-width="5.18915"/>
<path d="M1620.54 93.9017C1615.71 98.3101 1608.02 98.196 1603.35 93.667C1598.68 89.1382 1598.78 81.8929 1603.61 77.4845C1608.43 73.076 1616.13 73.19 1620.8 77.7188C1625.47 82.2478 1625.36 89.4933 1620.54 93.9017Z" fill="#E1E1E6" stroke="#E1E1E6" stroke-width="7.80322"/>
<path d="M1435.48 107.664C1430.65 112.072 1422.96 111.958 1418.29 107.429C1413.62 102.9 1413.72 95.6548 1418.55 91.2464C1423.37 86.8381 1431.07 86.9521 1435.74 91.4811C1440.41 96.01 1440.3 103.255 1435.48 107.664Z" fill="#E1E1E6" stroke="#E1E1E6" stroke-width="7.80322"/>
<path d="M1810.11 290.464C1805.29 294.873 1797.59 294.759 1792.92 290.23C1788.25 285.701 1788.36 278.456 1793.18 274.047C1798 269.639 1805.7 269.753 1810.37 274.282C1815.04 278.811 1814.94 286.056 1810.11 290.464Z" fill="#E1E1E6" stroke="#E1E1E6" stroke-width="7.80322"/>
<path d="M1866.73 342.065C1861.9 346.473 1854.2 346.359 1849.53 341.83C1844.86 337.301 1844.97 330.056 1849.79 325.647C1854.62 321.239 1862.31 321.353 1866.98 325.882C1871.66 330.411 1871.55 337.656 1866.73 342.065Z" fill="#E1E1E6" stroke="#E1E1E6" stroke-width="7.80322"/>
<path d="M1283.34 -4.30936C1278.52 0.0990438 1270.82 -0.0149591 1266.15 -4.54388C1261.48 -9.07281 1261.58 -16.3182 1266.41 -20.7266C1271.23 -25.135 1278.93 -25.021 1283.6 -20.4921C1288.27 -15.9632 1288.16 -8.71777 1283.34 -4.30936Z" fill="#E1E1E6" stroke="#E1E1E6" stroke-width="7.80322"/>
<path d="M1476.73 246.391C1471.9 250.799 1464.2 250.685 1459.53 246.156C1454.86 241.628 1454.97 234.382 1459.79 229.974C1464.62 225.565 1472.31 225.679 1476.98 230.208C1481.66 234.737 1481.55 241.983 1476.73 246.391Z" fill="#E1E1E6" stroke="#E1E1E6" stroke-width="7.80322"/>
</g>
</g>
<defs>
<clipPath id="clip0_1410_140">
<rect width="1920" height="900" fill="white"/>
</clipPath>
</defs>
</svg>
