<svg width="25" height="25" viewBox="0 0 25 25" fill="none" xmlns="http://www.w3.org/2000/svg">
<rect width="25" height="25" rx="10" fill="#A30000"/>
<path d="M13 6C11.6155 6 10.2622 6.41054 9.11101 7.17971C7.95987 7.94888 7.06266 9.04213 6.53285 10.3212C6.00303 11.6003 5.86441 13.0078 6.13451 14.3656C6.4046 15.7235 7.07129 16.9708 8.05026 17.9497C9.02922 18.9287 10.2765 19.5954 11.6344 19.8655C12.9922 20.1356 14.3997 19.997 15.6788 19.4672C16.9579 18.9373 18.0511 18.0401 18.8203 16.889C19.5895 15.7378 20 14.3845 20 13C19.998 11.1441 19.2599 9.36475 17.9476 8.05242C16.6353 6.74009 14.8559 6.00196 13 6ZM18.9231 13C18.9245 14.3849 18.4381 15.726 17.5493 16.7881L9.21193 8.45C10.0768 7.73046 11.1288 7.27214 12.2447 7.12867C13.3605 6.98519 14.4942 7.1625 15.513 7.63983C16.5318 8.11717 17.3936 8.8748 17.9975 9.82405C18.6014 10.7733 18.9224 11.8749 18.9231 13ZM7.07693 13C7.07555 11.6151 7.56191 10.274 8.45068 9.21192L16.7881 17.55C15.9232 18.2695 14.8712 18.7279 13.7553 18.8713C12.6395 19.0148 11.5058 18.8375 10.487 18.3602C9.46821 17.8828 8.60644 17.1252 8.00253 16.1759C7.39863 15.2267 7.07757 14.1251 7.07693 13Z" fill="white"/>
</svg>
