<svg width="25" height="25" viewBox="0 0 25 25" fill="none" xmlns="http://www.w3.org/2000/svg">
<rect width="25" height="25" rx="10" fill="#98FB98"/>
<path d="M19.0531 10.8138C18.8007 10.55 18.5395 10.2781 18.4411 10.0391C18.35 9.82009 18.3446 9.45714 18.3393 9.10558C18.3292 8.45201 18.3185 7.71138 17.8036 7.19643C17.2886 6.68147 16.548 6.67076 15.8944 6.66071C15.5429 6.65536 15.1799 6.65 14.9609 6.55893C14.7225 6.46049 14.45 6.19933 14.1862 5.94687C13.7241 5.5029 13.1991 5 12.5 5C11.8009 5 11.2766 5.5029 10.8138 5.94687C10.55 6.19933 10.2781 6.46049 10.0391 6.55893C9.82143 6.65 9.45714 6.65536 9.10558 6.66071C8.45201 6.67076 7.71138 6.68147 7.19643 7.19643C6.68147 7.71138 6.67411 8.45201 6.66071 9.10558C6.65536 9.45714 6.65 9.82009 6.55893 10.0391C6.46049 10.2775 6.19933 10.55 5.94687 10.8138C5.5029 11.2759 5 11.8009 5 12.5C5 13.1991 5.5029 13.7234 5.94687 14.1862C6.19933 14.45 6.46049 14.7219 6.55893 14.9609C6.65 15.1799 6.65536 15.5429 6.66071 15.8944C6.67076 16.548 6.68147 17.2886 7.19643 17.8036C7.71138 18.3185 8.45201 18.3292 9.10558 18.3393C9.45714 18.3446 9.82009 18.35 10.0391 18.4411C10.2775 18.5395 10.55 18.8007 10.8138 19.0531C11.2759 19.4971 11.8009 20 12.5 20C13.1991 20 13.7234 19.4971 14.1862 19.0531C14.45 18.8007 14.7219 18.5395 14.9609 18.4411C15.1799 18.35 15.5429 18.3446 15.8944 18.3393C16.548 18.3292 17.2886 18.3185 17.8036 17.8036C18.3185 17.2886 18.3292 16.548 18.3393 15.8944C18.3446 15.5429 18.35 15.1799 18.4411 14.9609C18.5395 14.7225 18.8007 14.45 19.0531 14.1862C19.4971 13.7241 20 13.1991 20 12.5C20 11.8009 19.4971 11.2766 19.0531 10.8138ZM18.2797 13.4449C17.9589 13.7797 17.6268 14.1259 17.4507 14.5511C17.2819 14.9596 17.2746 15.4263 17.2679 15.8783C17.2612 16.3471 17.2538 16.8379 17.0455 17.0455C16.8373 17.2531 16.3498 17.2612 15.8783 17.2679C15.4263 17.2746 14.9596 17.2819 14.5511 17.4507C14.1259 17.6268 13.7797 17.9589 13.4449 18.2797C13.11 18.6004 12.7679 18.9286 12.5 18.9286C12.2321 18.9286 11.8873 18.5991 11.5551 18.2797C11.223 17.9603 10.8741 17.6268 10.4489 17.4507C10.0404 17.2819 9.57366 17.2746 9.12165 17.2679C8.6529 17.2612 8.16205 17.2538 7.95446 17.0455C7.74687 16.8373 7.73884 16.3498 7.73214 15.8783C7.72545 15.4263 7.71808 14.9596 7.54933 14.5511C7.37321 14.1259 7.04107 13.7797 6.72031 13.4449C6.39955 13.11 6.07143 12.7679 6.07143 12.5C6.07143 12.2321 6.40089 11.8873 6.72031 11.5551C7.03973 11.223 7.37321 10.8741 7.54933 10.4489C7.71808 10.0404 7.72545 9.57366 7.73214 9.12165C7.73884 8.6529 7.74621 8.16205 7.95446 7.95446C8.16272 7.74687 8.65022 7.73884 9.12165 7.73214C9.57366 7.72545 10.0404 7.71808 10.4489 7.54933C10.8741 7.37321 11.2203 7.04107 11.5551 6.72031C11.89 6.39955 12.2321 6.07143 12.5 6.07143C12.7679 6.07143 13.1127 6.40089 13.4449 6.72031C13.777 7.03973 14.1259 7.37321 14.5511 7.54933C14.9596 7.71808 15.4263 7.72545 15.8783 7.73214C16.3471 7.73884 16.8379 7.74621 17.0455 7.95446C17.2531 8.16272 17.2612 8.65022 17.2679 9.12165C17.2746 9.57366 17.2819 10.0404 17.4507 10.4489C17.6268 10.8741 17.9589 11.2203 18.2797 11.5551C18.6004 11.89 18.9286 12.2321 18.9286 12.5C18.9286 12.7679 18.5991 13.1127 18.2797 13.4449ZM15.5576 10.5138C15.6074 10.5636 15.6469 10.6227 15.6739 10.6877C15.7008 10.7527 15.7147 10.8225 15.7147 10.8929C15.7147 10.9633 15.7008 11.033 15.6739 11.098C15.6469 11.163 15.6074 11.2221 15.5576 11.2719L11.8076 15.0219C11.7578 15.0717 11.6988 15.1112 11.6337 15.1382C11.5687 15.1651 11.499 15.179 11.4286 15.179C11.3582 15.179 11.2885 15.1651 11.2234 15.1382C11.1584 15.1112 11.0993 15.0717 11.0496 15.0219L9.44241 13.4147C9.34189 13.3142 9.28542 13.1779 9.28542 13.0357C9.28542 12.8936 9.34189 12.7572 9.44241 12.6567C9.54293 12.5562 9.67927 12.4997 9.82143 12.4997C9.96359 12.4997 10.0999 12.5562 10.2004 12.6567L11.4286 13.8855L14.7996 10.5138C14.8493 10.464 14.9084 10.4245 14.9734 10.3976C15.0385 10.3706 15.1082 10.3567 15.1786 10.3567C15.249 10.3567 15.3187 10.3706 15.3837 10.3976C15.4488 10.4245 15.5078 10.464 15.5576 10.5138Z" fill="#333333"/>
</svg>
