<svg width="25" height="25" viewBox="0 0 25 25" fill="none" xmlns="http://www.w3.org/2000/svg">
<rect width="25" height="25" rx="10" fill="#7CFC00"/>
<path d="M13 6C11.6155 6 10.2622 6.41054 9.11101 7.17971C7.95987 7.94888 7.06266 9.04213 6.53285 10.3212C6.00303 11.6003 5.86441 13.0078 6.13451 14.3656C6.4046 15.7235 7.07129 16.9708 8.05026 17.9497C9.02922 18.9287 10.2765 19.5954 11.6344 19.8655C12.9922 20.1356 14.3997 19.997 15.6788 19.4672C16.9579 18.9373 18.0511 18.0401 18.8203 16.889C19.5895 15.7378 20 14.3845 20 13C19.998 11.1441 19.2599 9.36475 17.9476 8.05242C16.6353 6.74009 14.8559 6.00196 13 6ZM13 18.9231C11.8285 18.9231 10.6834 18.5757 9.70932 17.9249C8.73527 17.274 7.9761 16.349 7.52779 15.2667C7.07949 14.1844 6.96219 12.9934 7.19074 11.8445C7.41928 10.6955 7.9834 9.64011 8.81175 8.81175C9.64011 7.98339 10.6955 7.41928 11.8445 7.19073C12.9934 6.96219 14.1844 7.07949 15.2667 7.52779C16.349 7.97609 17.274 8.73527 17.9249 9.70931C18.5757 10.6834 18.9231 11.8285 18.9231 13C18.9213 14.5703 18.2967 16.0759 17.1863 17.1863C16.0759 18.2967 14.5704 18.9213 13 18.9231ZM15.5348 13.1575C15.5849 13.2075 15.6246 13.2669 15.6517 13.3323C15.6788 13.3976 15.6927 13.4677 15.6927 13.5385C15.6927 13.6092 15.6788 13.6793 15.6517 13.7447C15.6246 13.81 15.5849 13.8694 15.5348 13.9194L13.381 16.0733C13.331 16.1233 13.2716 16.163 13.2062 16.1901C13.1408 16.2172 13.0708 16.2312 13 16.2312C12.9292 16.2312 12.8592 16.2172 12.7938 16.1901C12.7284 16.163 12.669 16.1233 12.619 16.0733L10.4652 13.9194C10.3642 13.8184 10.3074 13.6813 10.3074 13.5385C10.3074 13.3956 10.3642 13.2585 10.4652 13.1575C10.5662 13.0565 10.7033 12.9997 10.8462 12.9997C10.989 12.9997 11.1261 13.0565 11.2271 13.1575L12.4615 14.3926V10.3077C12.4615 10.1649 12.5183 10.0279 12.6193 9.92694C12.7202 9.82596 12.8572 9.76923 13 9.76923C13.1428 9.76923 13.2798 9.82596 13.3808 9.92694C13.4817 10.0279 13.5385 10.1649 13.5385 10.3077V14.3926L14.7729 13.1575C14.8229 13.1074 14.8823 13.0677 14.9476 13.0406C15.013 13.0135 15.0831 12.9996 15.1538 12.9996C15.2246 12.9996 15.2947 13.0135 15.36 13.0406C15.4254 13.0677 15.4848 13.1074 15.5348 13.1575Z" fill="#333333"/>
</svg>
