<svg width="25" height="25" viewBox="0 0 25 25" fill="none" xmlns="http://www.w3.org/2000/svg">
<rect width="25" height="25" rx="10" fill="#FF0000"/>
<path d="M19.7949 18.8044C19.8599 18.8695 19.9115 18.9467 19.9467 19.0316C19.9819 19.1166 20 19.2077 20 19.2996C20 19.3916 19.9819 19.4827 19.9467 19.5677C19.9115 19.6526 19.8599 19.7298 19.7949 19.7949C19.7298 19.8599 19.6526 19.9115 19.5677 19.9467C19.4827 19.9819 19.3916 20 19.2996 20C19.2077 20 19.1166 19.9819 19.0316 19.9467C18.9467 19.9115 18.8695 19.8599 18.8044 19.7949L13 13.9896L7.19557 19.7949C7.06423 19.9262 6.88609 20 6.70035 20C6.51461 20 6.33647 19.9262 6.20513 19.7949C6.07379 19.6635 6 19.4854 6 19.2996C6 19.1139 6.07379 18.9358 6.20513 18.8044L12.0104 13L6.20513 7.19557C6.07379 7.06423 6 6.88609 6 6.70035C6 6.51461 6.07379 6.33647 6.20513 6.20513C6.33647 6.07379 6.51461 6 6.70035 6C6.88609 6 7.06423 6.07379 7.19557 6.20513L13 12.0104L18.8044 6.20513C18.9358 6.07379 19.1139 6 19.2996 6C19.4854 6 19.6635 6.07379 19.7949 6.20513C19.9262 6.33647 20 6.51461 20 6.70035C20 6.88609 19.9262 7.06423 19.7949 7.19557L13.9896 13L19.7949 18.8044Z" fill="white"/>
</svg>
