<svg width="25" height="25" viewBox="0 0 25 25" fill="none" xmlns="http://www.w3.org/2000/svg">
<rect width="25" height="25" rx="10" fill="#CD5C5C"/>
<path d="M16.2508 10.4991C15.9913 10.4988 15.735 10.5567 15.5008 10.6685V8.74898C15.5007 8.44569 15.4218 8.14762 15.2718 7.884C15.1219 7.62039 14.9059 7.40027 14.6453 7.24522C14.3846 7.09018 14.0881 7.00554 13.7849 6.9996C13.4817 6.99367 13.1821 7.06663 12.9155 7.21134C12.7872 6.8148 12.5216 6.47706 12.1665 6.2589C11.8113 6.04074 11.39 5.95648 10.9783 6.02129C10.5665 6.08609 10.1915 6.2957 9.92052 6.6124C9.64956 6.9291 9.50053 7.3321 9.50023 7.74889V8.1683C9.26603 8.05643 9.00971 7.99855 8.75016 7.99891C8.28599 7.99891 7.84083 8.18331 7.51261 8.51152C7.18439 8.83974 7 9.2849 7 9.74907V14.4995C7 15.9583 7.57952 17.3574 8.61106 18.3889C9.6426 19.4205 11.0417 20 12.5005 20C13.9593 20 15.3584 19.4205 16.3899 18.3889C17.4215 17.3574 18.001 15.9583 18.001 14.4995V12.2493C18.001 11.7851 17.8166 11.34 17.4884 11.0118C17.1602 10.6835 16.715 10.4991 16.2508 10.4991ZM17.0009 14.4995C17.0009 15.6931 16.5268 16.8378 15.6828 17.6818C14.8388 18.5258 13.6941 18.9999 12.5005 18.9999C11.3069 18.9999 10.1622 18.5258 9.31823 17.6818C8.47424 16.8378 8.00009 15.6931 8.00009 14.4995V9.74907C8.00009 9.55014 8.07912 9.35936 8.21978 9.21869C8.36045 9.07803 8.55123 8.99901 8.75016 8.99901C8.94909 8.99901 9.13987 9.07803 9.28054 9.21869C9.4212 9.35936 9.50023 9.55014 9.50023 9.74907V12.4993C9.50023 12.6319 9.55291 12.7591 9.64669 12.8529C9.74046 12.9467 9.86765 12.9994 10.0003 12.9994C10.1329 12.9994 10.2601 12.9467 10.3539 12.8529C10.4476 12.7591 10.5003 12.6319 10.5003 12.4993V7.74889C10.5003 7.54996 10.5793 7.35918 10.72 7.21851C10.8607 7.07785 11.0515 6.99882 11.2504 6.99882C11.4493 6.99882 11.6401 7.07785 11.7808 7.21851C11.9214 7.35918 12.0005 7.54996 12.0005 7.74889V11.9993C12.0005 12.1319 12.0531 12.2591 12.1469 12.3529C12.2407 12.4466 12.3679 12.4993 12.5005 12.4993C12.6331 12.4993 12.7603 12.4466 12.8541 12.3529C12.9479 12.2591 13.0005 12.1319 13.0005 11.9993V8.74898C13.0005 8.55005 13.0796 8.35927 13.2202 8.2186C13.3609 8.07794 13.5517 7.99891 13.7506 7.99891C13.9495 7.99891 14.1403 8.07794 14.281 8.2186C14.4217 8.35927 14.5007 8.55005 14.5007 8.74898V13.0412C13.802 13.1604 13.1679 13.5226 12.7104 14.0639C12.2529 14.6053 12.0014 15.2909 12.0005 15.9996C12.0005 16.1323 12.0531 16.2594 12.1469 16.3532C12.2407 16.447 12.3679 16.4997 12.5005 16.4997C12.6331 16.4997 12.7603 16.447 12.8541 16.3532C12.9479 16.2594 13.0005 16.1323 13.0005 15.9996C13.0005 15.4692 13.2113 14.9604 13.5864 14.5853C13.9615 14.2102 14.4702 13.9995 15.0007 13.9995C15.1333 13.9995 15.2605 13.9468 15.3543 13.853C15.4481 13.7592 15.5008 13.632 15.5008 13.4994V12.2493C15.5008 12.0504 15.5798 11.8596 15.7205 11.7189C15.8611 11.5783 16.0519 11.4992 16.2508 11.4992C16.4498 11.4992 16.6405 11.5783 16.7812 11.7189C16.9219 11.8596 17.0009 12.0504 17.0009 12.2493V14.4995Z" fill="white"/>
</svg>
