<svg width="25" height="25" viewBox="0 0 25 25" fill="none" xmlns="http://www.w3.org/2000/svg">
<rect width="25" height="25" rx="10" fill="#FFD700"/>
<path d="M19.7857 16.9877L13.9299 6.81831C13.7836 6.56916 13.5747 6.36258 13.324 6.21905C13.0732 6.07551 12.7893 6 12.5003 6C12.2114 6 11.9275 6.07551 11.6767 6.21905C11.4259 6.36258 11.217 6.56916 11.0707 6.81831L5.21499 16.9877C5.0742 17.2286 5 17.5027 5 17.7818C5 18.0609 5.0742 18.335 5.21499 18.576C5.35945 18.8266 5.56799 19.0343 5.81922 19.1778C6.07045 19.3212 6.35533 19.3952 6.64461 19.3922H18.3561C18.6451 19.395 18.9297 19.3209 19.1807 19.1774C19.4317 19.034 19.64 18.8264 19.7843 18.576C19.9253 18.3351 19.9998 18.0611 20 17.782C20.0002 17.5029 19.9263 17.2287 19.7857 16.9877ZM18.8569 18.0396C18.8059 18.1267 18.7326 18.1986 18.6446 18.248C18.5566 18.2975 18.457 18.3226 18.3561 18.3208H6.64461C6.54368 18.3226 6.44411 18.2975 6.35609 18.248C6.26808 18.1986 6.19479 18.1267 6.14374 18.0396C6.0975 17.9613 6.07311 17.8721 6.07311 17.7811C6.07311 17.6902 6.0975 17.601 6.14374 17.5227L11.9995 7.35332C12.0515 7.26666 12.1252 7.19494 12.2132 7.14516C12.3012 7.09537 12.4006 7.0692 12.5017 7.0692C12.6028 7.0692 12.7022 7.09537 12.7902 7.14516C12.8782 7.19494 12.9518 7.26666 13.0039 7.35332L18.8596 17.5227C18.9054 17.6012 18.9294 17.6906 18.9289 17.7815C18.9284 17.8724 18.9036 17.9616 18.8569 18.0396ZM11.9646 14.0353V11.3569C11.9646 11.2148 12.0211 11.0786 12.1215 10.9781C12.222 10.8777 12.3583 10.8212 12.5003 10.8212C12.6424 10.8212 12.7787 10.8777 12.8791 10.9781C12.9796 11.0786 13.036 11.2148 13.036 11.3569V14.0353C13.036 14.1774 12.9796 14.3137 12.8791 14.4141C12.7787 14.5146 12.6424 14.571 12.5003 14.571C12.3583 14.571 12.222 14.5146 12.1215 14.4141C12.0211 14.3137 11.9646 14.1774 11.9646 14.0353ZM13.3039 16.4459C13.3039 16.6049 13.2567 16.7602 13.1684 16.8924C13.0802 17.0245 12.9547 17.1275 12.8078 17.1883C12.661 17.2491 12.4994 17.265 12.3436 17.234C12.1877 17.203 12.0445 17.1265 11.9322 17.0141C11.8198 16.9017 11.7432 16.7586 11.7122 16.6027C11.6812 16.4468 11.6972 16.2853 11.758 16.1384C11.8188 15.9916 11.9218 15.8661 12.0539 15.7778C12.1861 15.6895 12.3414 15.6424 12.5003 15.6424C12.7134 15.6424 12.9178 15.7271 13.0685 15.8778C13.2192 16.0284 13.3039 16.2328 13.3039 16.4459Z" fill="black"/>
</svg>
