<svg width="25" height="25" viewBox="0 0 25 25" fill="none" xmlns="http://www.w3.org/2000/svg">
<rect width="25" height="25" rx="10" fill="#FF6347"/>
<path d="M16.2308 5H8.15385C7.84783 5 7.55434 5.12157 7.33795 5.33795C7.12157 5.55434 7 5.84783 7 6.15385V8.75C7.00039 8.92906 7.04227 9.10559 7.12235 9.26575C7.20242 9.42591 7.31852 9.56533 7.46154 9.67308L11.231 12.5L7.46154 15.3269C7.31852 15.4347 7.20242 15.5741 7.12235 15.7342C7.04227 15.8944 7.00039 16.0709 7 16.25V18.8462C7 19.1522 7.12157 19.4457 7.33795 19.662C7.55434 19.8784 7.84783 20 8.15385 20H16.2308C16.5368 20 16.8303 19.8784 17.0467 19.662C17.263 19.4457 17.3846 19.1522 17.3846 18.8462V16.276C17.3842 16.0976 17.3427 15.9217 17.2633 15.762C17.1838 15.6023 17.0687 15.463 16.9267 15.355L13.1493 12.5L16.9267 9.64423C17.0687 9.53648 17.184 9.39737 17.2634 9.23775C17.3428 9.07814 17.3843 8.90233 17.3846 8.72404V6.15385C17.3846 5.84783 17.263 5.55434 17.0467 5.33795C16.8303 5.12157 16.5368 5 16.2308 5ZM16.2308 6.15385V7.30769H8.15385V6.15385H16.2308ZM16.2308 18.8462H8.15385V16.25L12.1923 13.2212L16.2308 16.2752V18.8462ZM12.1923 11.7788L8.15385 8.75V8.46154H16.2308V8.72404L12.1923 11.7788Z" fill="white"/>
</svg>
