<svg width="25" height="25" viewBox="0 0 25 25" fill="none" xmlns="http://www.w3.org/2000/svg">
<rect width="25" height="25" rx="10" fill="#F0E68C"/>
<path d="M12.5 11.1923C12.653 11.1923 12.7998 11.2531 12.9079 11.3613C13.0161 11.4695 13.0769 11.6162 13.0769 11.7692V12.9231H14.2308C14.3838 12.9231 14.5305 12.9839 14.6387 13.0921C14.7469 13.2002 14.8077 13.347 14.8077 13.5C14.8077 13.653 14.7469 13.7998 14.6387 13.9079C14.5305 14.0161 14.3838 14.0769 14.2308 14.0769H13.0769V15.2308C13.0769 15.3838 13.0161 15.5305 12.9079 15.6387C12.7998 15.7469 12.653 15.8077 12.5 15.8077C12.347 15.8077 12.2002 15.7469 12.0921 15.6387C11.9839 15.5305 11.9231 15.3838 11.9231 15.2308V14.0769H10.7692C10.6162 14.0769 10.4695 14.0161 10.3613 13.9079C10.2531 13.7998 10.1923 13.653 10.1923 13.5C10.1923 13.347 10.2531 13.2002 10.3613 13.0921C10.4695 12.9839 10.6162 12.9231 10.7692 12.9231H11.9231V11.7692C11.9231 11.6162 11.9839 11.4695 12.0921 11.3613C12.2002 11.2531 12.347 11.1923 12.5 11.1923ZM20 8.88462V16.9615C20 17.2676 19.8784 17.561 19.662 17.7774C19.4457 17.9938 19.1522 18.1154 18.8462 18.1154H6.15385C5.84783 18.1154 5.55434 17.9938 5.33795 17.7774C5.12157 17.561 5 17.2676 5 16.9615V7.15385C5 6.84783 5.12157 6.55434 5.33795 6.33795C5.55434 6.12157 5.84783 6 6.15385 6H9.99976C10.2493 6.00062 10.4921 6.08153 10.6921 6.23077L12.6925 7.73077H18.8462C19.1522 7.73077 19.4457 7.85234 19.662 8.06872C19.8784 8.28511 20 8.5786 20 8.88462ZM6.15385 9.46154H9.99976L11.5387 8.30769L9.99976 7.15385H6.15385V9.46154ZM18.8462 8.88462H12.6925L10.6921 10.3846C10.4921 10.5339 10.2493 10.6148 9.99976 10.6154H6.15385V16.9615H18.8462V8.88462Z" fill="#333333"/>
</svg>
